<svg version="1.1" xmlns="http://www.w3.org/2000/svg" viewBox="0 0 2537.495696846563 1172.5922612333302" width="2537.495696846563" height="1172.5922612333302">
    <!-- svg-source:excalidraw -->

    <defs>
        <style class="style-fonts">
            @font-face {
            font-family: "Virgil";
            src: url("https://excalidraw.com/Virgil.woff2");
            }
            @font-face {
            font-family: "Cascadia";
            src: url("https://excalidraw.com/Cascadia.woff2");
            }
            @font-face {
            font-family: "Assistant";
            src: url("https://excalidraw.com/Assistant-Regular.woff2");
            }
        </style>

    </defs>
    <rect x="0" y="0" width="2537.495696846563" height="1172.5922612333302" fill="#ffffff"></rect><g stroke-opacity="0" fill-opacity="0" stroke-linecap="round" transform="translate(10 554.0752252977156) rotate(0 58.37866158183556 58.37866158183556)"><path d="M37.79 3.65 C45.7 -0.28, 57.06 -0.59, 66.06 0.49 C75.06 1.57, 84.45 5, 91.79 10.13 C99.13 15.26, 105.93 23.3, 110.11 31.28 C114.29 39.25, 116.95 48.99, 116.87 57.97 C116.79 66.95, 113.93 77.22, 109.65 85.15 C105.36 93.08, 98.6 100.47, 91.14 105.53 C83.68 110.58, 73.86 114.13, 64.88 115.5 C55.9 116.86, 45.7 116.61, 37.25 113.7 C28.81 110.78, 20.28 104.82, 14.21 98.02 C8.13 91.21, 2.82 81.73, 0.78 72.88 C-1.26 64.03, -0.4 53.87, 1.97 44.9 C4.35 35.93, 8.35 26.18, 15.04 19.05 C21.72 11.92, 36.79 4.88, 42.08 2.13 C47.37 -0.62, 46.66 1.46, 46.76 2.55 M64.88 0.77 C73.46 1.11, 83.94 5.51, 91.42 10.47 C98.91 15.43, 105.68 22.92, 109.81 30.52 C113.93 38.11, 115.79 47.04, 116.16 56.04 C116.53 65.04, 116.06 76.32, 112.04 84.53 C108.01 92.73, 99.34 99.8, 92.01 105.28 C84.67 110.75, 77.08 116.11, 68.03 117.38 C58.98 118.65, 46.27 116.3, 37.71 112.9 C29.15 109.49, 22.41 103.66, 16.67 96.94 C10.93 90.22, 5.69 81.31, 3.26 72.59 C0.82 63.88, 0.37 53.19, 2.05 44.65 C3.73 36.12, 7.54 27.89, 13.32 21.38 C19.11 14.88, 28.1 9.27, 36.74 5.61 C45.39 1.96, 60.78 -0.09, 65.2 -0.55 C69.61 -1, 63.58 1.75, 63.22 2.87" stroke="#1e1e1e" stroke-width="1" fill="none"></path></g><g stroke-linecap="round"><g transform="translate(39.686143927223384 633.9155750129178) rotate(0 27.17391304347825 -24.197589173934944)"><path d="M-0.88 -0.35 C0.14 -5.55, 2.06 -23.78, 6.51 -31.6 C10.95 -39.43, 19.17 -46.71, 25.79 -47.28 C32.4 -47.84, 41.46 -42.34, 46.21 -34.98 C50.96 -27.62, 61.95 -8.97, 54.3 -3.11 C46.66 2.74, 9.42 -0.27, 0.35 0.14 M0.86 -1.57 C1.72 -7.11, 1.78 -25.57, 5.78 -33.48 C9.78 -41.39, 18.08 -48.41, 24.87 -49.03 C31.66 -49.66, 41.86 -44.96, 46.52 -37.22 C51.18 -29.49, 60.85 -8.67, 52.81 -2.61 C44.77 3.46, 7.01 -1.48, -1.72 -0.83" stroke="#1e1e1e" stroke-width="1" fill="none"></path></g></g><mask></mask><g stroke-linecap="round" transform="translate(53.431907900464466 560.2819223755353) rotate(0 13.913043478260988 12.173913043478251)"><path d="M13.29 0.01 C16.05 -0.29, 19.9 0.98, 22.27 2.52 C24.63 4.07, 26.86 6.76, 27.5 9.26 C28.13 11.76, 27.48 15.26, 26.09 17.54 C24.7 19.83, 21.91 21.98, 19.16 22.97 C16.4 23.95, 12.43 24.08, 9.56 23.45 C6.7 22.83, 3.61 21.27, 1.97 19.22 C0.34 17.17, -0.56 13.79, -0.25 11.16 C0.06 8.54, 1.46 5.32, 3.83 3.48 C6.2 1.63, 12.14 0.71, 13.97 0.11 C15.8 -0.5, 14.83 -0.33, 14.81 -0.16 M14.2 0.15 C17.12 -0.05, 21.08 0.41, 23.38 2.08 C25.68 3.74, 27.47 7.36, 28.01 10.11 C28.54 12.85, 28.09 16.26, 26.6 18.55 C25.12 20.83, 22.01 23.02, 19.09 23.8 C16.17 24.57, 11.82 24.09, 9.08 23.22 C6.34 22.35, 4.19 20.76, 2.65 18.57 C1.11 16.38, -0.63 12.59, -0.17 10.09 C0.29 7.6, 3.2 5.33, 5.4 3.6 C7.6 1.87, 11.57 0.38, 13.04 -0.27 C14.51 -0.93, 14 -0.51, 14.21 -0.35" stroke="#1e1e1e" stroke-width="1" fill="none"></path></g><g transform="translate(45.00497792901842 639.6258513835676) rotate(0 22.33997344970703 12.5)"><text x="22.33997344970703" y="17.52" font-family="Virgil, Segoe UI Emoji" font-size="20px" fill="#1e1e1e" text-anchor="middle" style="white-space: pre;" direction="ltr" dominant-baseline="alphabetic">User</text></g><g stroke-linecap="round" transform="translate(611.2139672598187 530.0648808339927) rotate(0 117.75488558459938 82.38900589402351)"><path d="M32 0 C83.73 -1.23, 138.7 -2.56, 203.51 0 M32 0 C72.64 2.46, 113.52 2.28, 203.51 0 M203.51 0 C225.49 -0.42, 233.83 10.99, 235.51 32 M203.51 0 C223.77 -2.02, 233.84 12.28, 235.51 32 M235.51 32 C234.38 66.91, 234.47 100.96, 235.51 132.78 M235.51 32 C234.97 61.64, 234.48 90.4, 235.51 132.78 M235.51 132.78 C234.66 153.83, 224.57 164.73, 203.51 164.78 M235.51 132.78 C236.67 153.25, 226.58 164.49, 203.51 164.78 M203.51 164.78 C147.06 164.97, 87.96 164.37, 32 164.78 M203.51 164.78 C158.9 165.91, 115.61 165.4, 32 164.78 M32 164.78 C11.8 165.34, 0.96 153.75, 0 132.78 M32 164.78 C8.74 164.16, 0.19 153.71, 0 132.78 M0 132.78 C-0.78 96.5, 1.17 62.41, 0 32 M0 132.78 C0.46 101.66, 0.75 71.49, 0 32 M0 32 C0.31 12.24, 9.55 -0.62, 32 0 M0 32 C-2.03 9.73, 12.1 -0.54, 32 0" stroke="#1971c2" stroke-width="2" fill="none"></path></g><g transform="translate(685.0488928224454 599.9538867280162) rotate(0 43.919960021972656 12.5)"><text x="43.919960021972656" y="17.52" font-family="Virgil, Segoe UI Emoji" font-size="20px" fill="#1971c2" text-anchor="middle" style="white-space: pre;" direction="ltr" dominant-baseline="alphabetic">Telegram</text></g><g mask="url(#mask-easzR2tVUM5rTZLmUFdp8)" stroke-linecap="round"><g transform="translate(592.6537203843691 609.6385537490157) rotate(0 -223.80511634849336 1.407666644391952)"><path d="M0.76 -1.09 C-73.76 -0.86, -372.39 1.16, -447.31 1.72 M-0.29 0.95 C-74.94 1.26, -373.74 2.3, -448.1 2.68" stroke="#1e1e1e" stroke-width="2" fill="none"></path></g><g transform="translate(592.6537203843691 609.6385537490157) rotate(0 -223.80511634849336 1.407666644391952)"><path d="M-424.64 -5.97 C-433.18 -2.84, -439.94 -2.75, -448.1 2.68 M-424.64 -5.97 C-430.99 -4.41, -437.34 -1.22, -448.1 2.68" stroke="#1e1e1e" stroke-width="2" fill="none"></path></g><g transform="translate(592.6537203843691 609.6385537490157) rotate(0 -223.80511634849336 1.407666644391952)"><path d="M-424.57 11.13 C-433.18 9.35, -439.95 4.52, -448.1 2.68 M-424.57 11.13 C-430.83 8.42, -437.2 7.33, -448.1 2.68" stroke="#1e1e1e" stroke-width="2" fill="none"></path></g></g><mask id="mask-easzR2tVUM5rTZLmUFdp8"><rect x="0" y="0" fill="#fff" width="1140.2639530813558" height="712.4538870377996"></rect><rect x="273.88869650413744" y="598.5462203934078" fill="#000" width="189.91981506347656" height="25" opacity="1"></rect></mask><g transform="translate(273.88869650413744 598.5462203934078) rotate(0 95.09694786374462 11.883866275651258)"><text x="94.95990753173828" y="17.52" font-family="Virgil, Segoe UI Emoji" font-size="20px" fill="#1e1e1e" text-anchor="middle" style="white-space: pre;" direction="ltr" dominant-baseline="alphabetic">6. push notification</text></g><g stroke-linecap="round" transform="translate(1273.293484423708 554.0752253557982) rotate(0 55.026062130428954 54.97336948815882)"><path d="M-1.45 -0.36 L109.45 0.99 L110.81 108.13 L-1.26 111.74" stroke="none" stroke-width="0" fill="#fd7e14"></path><path d="M0 0 C28.13 -0.76, 58.85 1.55, 110.05 0 M0 0 C23.46 -0.14, 45.39 0.66, 110.05 0 M110.05 0 C108.44 29.28, 111.48 58.32, 110.05 109.95 M110.05 0 C110.82 26.33, 111.52 52.43, 110.05 109.95 M110.05 109.95 C69.63 109.15, 30.41 107.93, 0 109.95 M110.05 109.95 C86.07 109.6, 62.33 109.98, 0 109.95 M0 109.95 C0.22 88.33, -0.36 64.09, 0 0 M0 109.95 C0.05 71.46, 0.54 32.48, 0 0" stroke="#00000000" stroke-width="2" fill="none"></path></g><g stroke-linecap="round" transform="translate(1269.1783121629433 562.2018140731755) rotate(0 55.026062130428954 54.97336948815882)"><path d="M0 0 C0 0, 0 0, 0 0 M0 0 C0 0, 0 0, 0 0 M-0.26 6.4 C1.41 4.47, 3.09 2.54, 4.99 0.36 M-0.26 6.4 C0.93 5.03, 2.12 3.66, 4.99 0.36 M0.13 12.04 C3.87 7.74, 7.6 3.45, 10.63 -0.03 M0.13 12.04 C2.31 9.54, 4.48 7.04, 10.63 -0.03 M-0.13 18.44 C5.37 12.11, 10.87 5.79, 15.62 0.33 M-0.13 18.44 C4.29 13.36, 8.71 8.27, 15.62 0.33 M0.27 24.08 C5.92 17.58, 11.57 11.07, 21.26 -0.07 M0.27 24.08 C4.47 19.24, 8.68 14.4, 21.26 -0.07 M0 30.48 C5.46 24.2, 10.92 17.93, 26.25 0.29 M0 30.48 C9.83 19.17, 19.66 7.87, 26.25 0.29 M-0.26 36.88 C6.19 29.47, 12.63 22.06, 31.89 -0.1 M-0.26 36.88 C9.19 26.01, 18.63 15.15, 31.89 -0.1 M0.14 42.52 C12.91 27.83, 25.68 13.14, 36.88 0.26 M0.14 42.52 C9.69 31.53, 19.25 20.53, 36.88 0.26 M-0.12 48.92 C10.01 37.26, 20.14 25.61, 42.52 -0.14 M-0.12 48.92 C9.03 38.39, 18.18 27.86, 42.52 -0.14 M0.27 54.56 C12.94 39.99, 25.6 25.42, 47.51 0.22 M0.27 54.56 C12.82 40.12, 25.37 25.69, 47.51 0.22 M0.01 60.96 C14.24 44.59, 28.47 28.22, 53.15 -0.17 M0.01 60.96 C16.86 41.57, 33.71 22.19, 53.15 -0.17 M-0.25 67.36 C12.49 52.69, 25.24 38.03, 58.14 0.19 M-0.25 67.36 C22.88 40.75, 46.01 14.14, 58.14 0.19 M0.14 73 C17.72 52.78, 35.3 32.55, 63.78 -0.21 M0.14 73 C18.08 52.36, 36.02 31.73, 63.78 -0.21 M-0.12 79.4 C20.21 56.01, 40.54 32.63, 68.77 0.15 M-0.12 79.4 C15.93 60.93, 31.99 42.46, 68.77 0.15 M0.28 85.04 C18.57 63.99, 36.87 42.94, 74.41 -0.24 M0.28 85.04 C16.31 66.6, 32.34 48.15, 74.41 -0.24 M0.01 91.44 C27.32 60.02, 54.63 28.61, 79.4 0.12 M0.01 91.44 C18.62 70.04, 37.22 48.64, 79.4 0.12 M-0.25 97.84 C22.07 72.17, 44.38 46.5, 85.04 -0.28 M-0.25 97.84 C29.95 63.1, 60.14 28.36, 85.04 -0.28 M0.15 103.48 C23.42 76.71, 46.7 49.93, 90.03 0.08 M0.15 103.48 C21.23 79.22, 42.32 54.96, 90.03 0.08 M-0.11 109.88 C19.17 87.69, 38.46 65.5, 95.67 -0.31 M-0.11 109.88 C33.95 70.7, 68.01 31.51, 95.67 -0.31 M4.87 110.24 C31.91 79.13, 58.95 48.03, 100.66 0.05 M4.87 110.24 C37.93 72.21, 70.98 34.19, 100.66 0.05 M9.86 110.6 C33.49 83.41, 57.13 56.22, 106.3 -0.34 M9.86 110.6 C29.9 87.54, 49.95 64.48, 106.3 -0.34 M15.5 110.2 C44.5 76.85, 73.49 43.49, 110.63 0.77 M15.5 110.2 C39.61 82.47, 63.72 54.74, 110.63 0.77 M20.49 110.56 C54.01 72, 87.54 33.44, 111.03 6.41 M20.49 110.56 C49.85 76.79, 79.21 43.01, 111.03 6.41 M26.13 110.17 C57.09 74.56, 88.04 38.95, 110.77 12.81 M26.13 110.17 C53.55 78.63, 80.97 47.09, 110.77 12.81 M31.12 110.53 C51.2 87.43, 71.28 64.33, 110.5 19.21 M31.12 110.53 C50.57 88.15, 70.02 65.77, 110.5 19.21 M36.11 110.89 C62.49 80.54, 88.88 50.18, 110.9 24.85 M36.11 110.89 C58.36 85.29, 80.61 59.7, 110.9 24.85 M41.75 110.49 C67.06 81.38, 92.37 52.26, 110.64 31.25 M41.75 110.49 C64.94 83.81, 88.14 57.13, 110.64 31.25 M46.74 110.85 C66.16 88.52, 85.57 66.18, 111.03 36.89 M46.74 110.85 C71.91 81.9, 97.07 52.95, 111.03 36.89 M52.38 110.46 C69.12 91.21, 85.85 71.96, 110.77 43.29 M52.38 110.46 C69.45 90.82, 86.53 71.18, 110.77 43.29 M57.37 110.82 C73.2 92.6, 89.04 74.38, 110.51 49.69 M57.37 110.82 C78.61 86.38, 99.86 61.94, 110.51 49.69 M63.01 110.42 C81.29 89.4, 99.57 68.37, 110.9 55.33 M63.01 110.42 C74.12 97.65, 85.23 84.87, 110.9 55.33 M68 110.78 C83.93 92.45, 99.87 74.12, 110.64 61.73 M68 110.78 C84.76 91.5, 101.52 72.22, 110.64 61.73 M73.64 110.39 C85.7 96.52, 97.76 82.65, 111.04 67.37 M73.64 110.39 C81.18 101.71, 88.72 93.04, 111.04 67.37 M78.63 110.75 C85.4 102.96, 92.17 95.18, 110.77 73.77 M78.63 110.75 C85.65 102.67, 92.67 94.6, 110.77 73.77 M84.27 110.36 C94.16 98.98, 104.06 87.6, 110.51 80.17 M84.27 110.36 C91.47 102.07, 98.67 93.79, 110.51 80.17 M89.26 110.72 C94.42 104.78, 99.58 98.84, 110.91 85.81 M89.26 110.72 C97.9 100.77, 106.55 90.82, 110.91 85.81 M94.9 110.32 C99.81 104.67, 104.72 99.03, 110.65 92.21 M94.9 110.32 C98.83 105.8, 102.76 101.28, 110.65 92.21 M99.89 110.68 C103.63 106.38, 107.37 102.07, 111.04 97.85 M99.89 110.68 C102.52 107.65, 105.16 104.62, 111.04 97.85 M105.53 110.29 C107.06 108.52, 108.6 106.76, 110.78 104.25 M105.53 110.29 C107.39 108.15, 109.24 106.02, 110.78 104.25" stroke="#fd7e14" stroke-width="0.5" fill="none"></path><path d="M0 0 C34.47 0, 68.93 0, 110.05 0 M0 0 C27.46 0, 54.92 0, 110.05 0 M110.05 0 C110.05 42.04, 110.05 84.09, 110.05 109.95 M110.05 0 C110.05 34.52, 110.05 69.03, 110.05 109.95 M110.05 109.95 C85.83 109.95, 61.61 109.95, 0 109.95 M110.05 109.95 C72.33 109.95, 34.6 109.95, 0 109.95 M0 109.95 C0 86.26, 0 62.57, 0 0 M0 109.95 C0 72.86, 0 35.78, 0 0" stroke="#000000" stroke-width="1" fill="none"></path></g><g stroke-linecap="round"><g transform="translate(1311.8448698937013 607.9172390897795) rotate(0 -5.252861811385401 22.960123094646065)"><path d="M0 0 C-5.85 11.71, -11.7 23.41, -21.73 43.48 M0 0 C-5.02 10.03, -10.03 20.07, -21.73 43.48 M-21.73 43.48 C-15.26 44.24, -8.79 44.99, -0.88 45.92 M-21.73 43.48 C-15.59 44.2, -9.44 44.92, -0.88 45.92 M-0.88 45.92 C2.8 38.8, 6.48 31.68, 11.23 22.5 M-0.88 45.92 C1.77 40.8, 4.41 35.68, 11.23 22.5 M11.23 22.5 C7.65 14.56, 4.08 6.62, 1.54 0.96 M11.23 22.5 C8.46 16.35, 5.69 10.2, 1.54 0.96" stroke="#ffffff" stroke-width="2" fill="none"></path></g></g><mask></mask><g stroke-linecap="round"><g transform="translate(1353.6501351631491 635.057595028032) rotate(0 -21.76124904627477 -18.77989025103966)"><path d="M0 0 C-9.83 -21.31, -19.67 -42.62, -25.54 -55.35 M0 0 C-7.92 -17.17, -15.85 -34.34, -25.54 -55.35 M-25.54 -55.35 C-33.04 -55.66, -40.53 -55.96, -49.81 -56.34 M-25.54 -55.35 C-32.01 -55.61, -38.47 -55.88, -49.81 -56.34 M-49.81 -56.34 C-50.22 -52.19, -50.64 -48.04, -51.52 -39.27 M-49.81 -56.34 C-50.25 -51.97, -50.69 -47.59, -51.52 -39.27 M-51.52 -39.27 C-47.71 -38.74, -43.9 -38.22, -39.09 -37.56 M-51.52 -39.27 C-48.75 -38.89, -45.99 -38.51, -39.09 -37.56 M-39.09 -37.56 C-33.01 -24.44, -26.93 -11.33, -13.43 17.79 M-39.09 -37.56 C-30.96 -20.03, -22.83 -2.49, -13.43 17.79 M-13.43 17.79 C-7.26 18.1, -1.1 18.41, 6.3 18.78 M-13.43 17.79 C-8.98 18.02, -4.53 18.24, 6.3 18.78 M6.3 18.78 C6.94 12.4, 7.57 6.01, 8 1.71 M6.3 18.78 C6.64 15.35, 6.98 11.93, 8 1.71 M8 1.71 C7.41 1.12, 6.82 0.53, 6.3 0 M8 1.71 C7.34 1.05, 6.69 0.39, 6.3 0" stroke="#ffffff" stroke-width="2" fill="none"></path></g></g><mask></mask><g transform="translate(1248.8714751457342 676.7303287592283) rotate(0 73.97595977783203 17.5)"><text x="73.97595977783203" y="24.528" font-family="Virgil, Segoe UI Emoji" font-size="28px" fill="#000000" text-anchor="middle" style="white-space: pre;" direction="ltr" dominant-baseline="alphabetic">Cheep Honk</text></g><g stroke-linecap="round" transform="translate(1271.6636364313977 10) rotate(0 51.46570472081385 51.46570472081373)"><path d="M3.85 -0.29 L105.06 -0.81 L99.18 104.15 L1.06 103.78" stroke="none" stroke-width="0" fill="#e64980"></path><path d="M0.97 1.14 C22.82 4.3, 43.66 4.19, 103.87 0.73 M-1.86 -0.67 C29.39 -0.23, 60.37 -1.64, 104.72 -0.8 M106.55 3.75 C99.45 18.12, 101.55 41.06, 106.02 105.33 M104.66 -0.56 C102.39 32.26, 100.33 64.67, 102.46 104.47 M105.38 103.19 C78.04 105.85, 56.7 104.89, -1.7 105.09 M104.23 104.08 C76.99 104.39, 54.32 102.88, -1.27 102.29 M1.77 101.14 C-1.41 75.49, 3.7 53.3, 1.31 3.07 M-0.04 102.64 C-1.31 63.8, -2.28 23.76, 1.44 0.49" stroke="#00000000" stroke-width="1" fill="none"></path></g><g stroke-linecap="round" transform="translate(1269.9689041912911 13.401129720292829) rotate(0 51.46570472081385 51.46570472081373)"><path d="M0 0 C0 0, 0 0, 0 0 M0 0 C0 0, 0 0, 0 0 M-0.26 6.4 C0.86 5.11, 1.98 3.82, 4.99 0.36 M-0.26 6.4 C1.09 4.85, 2.43 3.3, 4.99 0.36 M0.13 12.04 C4.04 7.55, 7.94 3.06, 10.63 -0.03 M0.13 12.04 C3.6 8.05, 7.07 4.06, 10.63 -0.03 M-0.13 18.44 C4.66 12.93, 9.44 7.43, 15.62 0.33 M-0.13 18.44 C5.78 11.65, 11.68 4.85, 15.62 0.33 M0.27 24.08 C5.93 17.56, 11.6 11.05, 21.26 -0.07 M0.27 24.08 C8.15 15.01, 16.04 5.93, 21.26 -0.07 M0 30.48 C9.38 19.69, 18.76 8.9, 26.25 0.29 M0 30.48 C8.93 20.22, 17.85 9.96, 26.25 0.29 M-0.26 36.88 C6.46 29.16, 13.17 21.44, 31.89 -0.1 M-0.26 36.88 C9.99 25.1, 20.23 13.31, 31.89 -0.1 M0.14 42.52 C9.3 31.98, 18.46 21.44, 36.88 0.26 M0.14 42.52 C12.2 28.65, 24.25 14.78, 36.88 0.26 M-0.12 48.92 C9.07 38.35, 18.26 27.77, 42.52 -0.14 M-0.12 48.92 C15.77 30.64, 31.66 12.36, 42.52 -0.14 M0.27 54.56 C18.34 33.77, 36.42 12.98, 47.51 0.22 M0.27 54.56 C17.51 34.73, 34.76 14.89, 47.51 0.22 M0.01 60.96 C15.6 43.02, 31.19 25.09, 53.15 -0.17 M0.01 60.96 C18.59 39.58, 37.18 18.2, 53.15 -0.17 M-0.25 67.36 C22.29 41.42, 44.84 15.49, 58.14 0.19 M-0.25 67.36 C12.83 52.31, 25.91 37.26, 58.14 0.19 M0.14 73 C20.66 49.4, 41.18 25.8, 63.78 -0.21 M0.14 73 C23.06 46.63, 45.99 20.26, 63.78 -0.21 M-0.12 79.4 C14.74 62.31, 29.59 45.22, 68.77 0.15 M-0.12 79.4 C22.42 53.47, 44.96 27.54, 68.77 0.15 M0.28 85.04 C26.89 54.43, 53.5 23.82, 74.41 -0.24 M0.28 85.04 C23.46 58.37, 46.65 31.69, 74.41 -0.24 M0.01 91.44 C20.13 68.3, 40.25 45.16, 79.4 0.12 M0.01 91.44 C19.47 69.06, 38.93 46.67, 79.4 0.12 M-0.25 97.84 C28.42 64.86, 57.08 31.89, 85.04 -0.28 M-0.25 97.84 C18.07 76.77, 36.38 55.7, 85.04 -0.28 M0.15 103.48 C18.86 81.95, 37.58 60.42, 90.03 0.08 M0.15 103.48 C35.79 62.47, 71.44 21.47, 90.03 0.08 M5.79 103.08 C38.45 65.51, 71.11 27.94, 95.67 -0.31 M5.79 103.08 C30.21 74.99, 54.63 46.9, 95.67 -0.31 M10.78 103.44 C30.15 81.16, 49.52 58.88, 100.66 0.05 M10.78 103.44 C42.15 67.35, 73.53 31.26, 100.66 0.05 M16.42 103.05 C36.08 80.43, 55.75 57.81, 103.02 3.43 M16.42 103.05 C50 64.43, 83.57 25.8, 103.02 3.43 M21.41 103.41 C49.06 71.6, 76.71 39.8, 103.42 9.07 M21.41 103.41 C47.51 73.38, 73.61 43.35, 103.42 9.07 M27.05 103.02 C49.1 77.65, 71.16 52.28, 103.15 15.47 M27.05 103.02 C47.24 79.79, 67.43 56.57, 103.15 15.47 M32.04 103.38 C50.58 82.05, 69.12 60.71, 102.89 21.87 M32.04 103.38 C51.06 81.49, 70.09 59.6, 102.89 21.87 M37.68 102.98 C63.32 73.49, 88.96 43.99, 103.29 27.51 M37.68 102.98 C57.72 79.93, 77.75 56.89, 103.29 27.51 M42.67 103.34 C54.99 89.16, 67.32 74.99, 103.03 33.91 M42.67 103.34 C55.49 88.59, 68.31 73.84, 103.03 33.91 M48.31 102.95 C67.38 81.01, 86.46 59.07, 103.42 39.55 M48.31 102.95 C65.25 83.46, 82.19 63.97, 103.42 39.55 M53.3 103.31 C63.58 91.48, 73.86 79.65, 103.16 45.95 M53.3 103.31 C68.81 85.46, 84.32 67.62, 103.16 45.95 M58.94 102.91 C69.84 90.38, 80.74 77.84, 102.9 52.35 M58.94 102.91 C75.17 84.24, 91.4 65.57, 102.9 52.35 M63.93 103.27 C73.22 92.58, 82.51 81.89, 103.29 57.99 M63.93 103.27 C78.66 86.33, 93.38 69.39, 103.29 57.99 M69.57 102.88 C81.79 88.82, 94.02 74.75, 103.03 64.39 M69.57 102.88 C82.52 87.98, 95.47 73.09, 103.03 64.39 M74.56 103.24 C82.88 93.66, 91.21 84.09, 103.42 70.03 M74.56 103.24 C84.93 91.3, 95.31 79.37, 103.42 70.03 M79.55 103.6 C85.3 96.97, 91.06 90.35, 103.16 76.43 M79.55 103.6 C87.94 93.94, 96.34 84.28, 103.16 76.43 M85.19 103.2 C90.23 97.41, 95.27 91.61, 102.9 82.83 M85.19 103.2 C90.03 97.63, 94.88 92.06, 102.9 82.83 M90.18 103.56 C92.87 100.46, 95.57 97.36, 103.3 88.47 M90.18 103.56 C93.69 99.52, 97.2 95.48, 103.3 88.47 M95.82 103.17 C98.51 100.08, 101.19 96.99, 103.04 94.87 M95.82 103.17 C97.77 100.92, 99.73 98.67, 103.04 94.87 M100.81 103.53 C101.46 102.78, 102.11 102.03, 103.43 100.51 M100.81 103.53 C101.37 102.88, 101.94 102.23, 103.43 100.51" stroke="#e64980" stroke-width="0.5" fill="none"></path><path d="M0 0 C21.15 0, 42.3 0, 102.93 0 M0 0 C33.29 0, 66.58 0, 102.93 0 M102.93 0 C102.93 25.56, 102.93 51.13, 102.93 102.93 M102.93 0 C102.93 30.42, 102.93 60.84, 102.93 102.93 M102.93 102.93 C74.6 102.93, 46.27 102.93, 0 102.93 M102.93 102.93 C74.96 102.93, 46.98 102.93, 0 102.93 M0 102.93 C0 78.68, 0 54.42, 0 0 M0 102.93 C0 66.19, 0 29.46, 0 0" stroke="#000000" stroke-width="1" fill="none"></path></g><g stroke-linecap="round"><g transform="translate(1298.843583232841 65.38962725003171) rotate(0 23.144553567625508 0.0661839976274905)"><path d="M0 0 C3.8 -6.61, 7.59 -13.23, 11.55 -20.13 M0 0 C3.41 -5.95, 6.83 -11.9, 11.55 -20.13 M11.55 -20.13 C17.93 -20.1, 24.31 -20.06, 34.6 -20 M11.55 -20.13 C20.56 -20.08, 29.56 -20.03, 34.6 -20 M34.6 -20 C38.81 -12.76, 43.02 -5.52, 46.29 0.11 M34.6 -20 C38.5 -13.29, 42.39 -6.59, 46.29 0.11 M46.29 0.11 C43.31 5.27, 40.33 10.43, 34.95 19.75 M46.29 0.11 C43.37 5.17, 40.45 10.23, 34.95 19.75 M34.95 19.75 C30.24 19.86, 25.53 19.96, 11.7 20.27 M34.95 19.75 C27.68 19.91, 20.41 20.07, 11.7 20.27 M11.7 20.27 C8.69 15.04, 5.67 9.81, 0 0 M11.7 20.27 C8.37 14.49, 5.03 8.7, 0 0" stroke="#ffffff" stroke-width="2" fill="none"></path></g></g><mask></mask><g stroke-linecap="round" transform="translate(1298.4194064410344 28.501748131582644) rotate(0 5.191878198343147 5.191878198343147)"><path d="M10.38 5.19 C10.38 5.49, 10.36 5.8, 10.3 6.09 C10.25 6.39, 10.17 6.69, 10.07 6.97 C9.97 7.25, 9.84 7.53, 9.69 7.79 C9.54 8.05, 9.36 8.3, 9.17 8.53 C8.98 8.76, 8.76 8.98, 8.53 9.17 C8.3 9.36, 8.05 9.54, 7.79 9.69 C7.53 9.84, 7.25 9.97, 6.97 10.07 C6.69 10.17, 6.39 10.25, 6.09 10.3 C5.8 10.36, 5.49 10.38, 5.19 10.38 C4.89 10.38, 4.59 10.36, 4.29 10.3 C3.99 10.25, 3.7 10.17, 3.42 10.07 C3.13 9.97, 2.86 9.84, 2.6 9.69 C2.34 9.54, 2.08 9.36, 1.85 9.17 C1.62 8.98, 1.41 8.76, 1.21 8.53 C1.02 8.3, 0.85 8.05, 0.7 7.79 C0.55 7.53, 0.42 7.25, 0.31 6.97 C0.21 6.69, 0.13 6.39, 0.08 6.09 C0.03 5.8, 0 5.49, 0 5.19 C0 4.89, 0.03 4.59, 0.08 4.29 C0.13 3.99, 0.21 3.7, 0.31 3.42 C0.42 3.13, 0.55 2.86, 0.7 2.6 C0.85 2.34, 1.02 2.08, 1.21 1.85 C1.41 1.62, 1.62 1.41, 1.85 1.21 C2.08 1.02, 2.34 0.85, 2.6 0.7 C2.86 0.55, 3.13 0.42, 3.42 0.31 C3.7 0.21, 3.99 0.13, 4.29 0.08 C4.59 0.03, 4.89 0, 5.19 0 C5.49 0, 5.8 0.03, 6.09 0.08 C6.39 0.13, 6.69 0.21, 6.97 0.31 C7.25 0.42, 7.53 0.55, 7.79 0.7 C8.05 0.85, 8.3 1.02, 8.53 1.21 C8.76 1.41, 8.98 1.62, 9.17 1.85 C9.36 2.08, 9.54 2.34, 9.69 2.6 C9.84 2.86, 9.97 3.13, 10.07 3.42 C10.17 3.7, 10.25 3.99, 10.3 4.29 C10.36 4.59, 10.37 5.04, 10.38 5.19 C10.4 5.34, 10.4 5.04, 10.38 5.19" stroke="#ffffff" stroke-width="2" fill="none"></path></g><g stroke-linecap="round"><g transform="translate(1306.509276637878 38.29967955008942) rotate(0 1.93295161647643 3.313201549216842)"><path d="M0 0 C1.38 2.36, 2.75 4.72, 3.87 6.63 M0 0 C1.03 1.77, 2.06 3.53, 3.87 6.63" stroke="#ffffff" stroke-width="2" fill="none"></path></g></g><mask></mask><g stroke-linecap="round" transform="translate(1335.133432077539 91.15689019844854) rotate(180 5.191878198343147 5.191878198343147)"><path d="M10.38 5.19 C10.38 5.49, 10.36 5.8, 10.3 6.09 C10.25 6.39, 10.17 6.69, 10.07 6.97 C9.97 7.25, 9.84 7.53, 9.69 7.79 C9.54 8.05, 9.36 8.3, 9.17 8.53 C8.98 8.76, 8.76 8.98, 8.53 9.17 C8.3 9.36, 8.05 9.54, 7.79 9.69 C7.53 9.84, 7.25 9.97, 6.97 10.07 C6.69 10.17, 6.39 10.25, 6.09 10.3 C5.8 10.36, 5.49 10.38, 5.19 10.38 C4.89 10.38, 4.59 10.36, 4.29 10.3 C3.99 10.25, 3.7 10.17, 3.42 10.07 C3.13 9.97, 2.86 9.84, 2.6 9.69 C2.34 9.54, 2.08 9.36, 1.85 9.17 C1.62 8.98, 1.41 8.76, 1.21 8.53 C1.02 8.3, 0.85 8.05, 0.7 7.79 C0.55 7.53, 0.42 7.25, 0.31 6.97 C0.21 6.69, 0.13 6.39, 0.08 6.09 C0.03 5.8, 0 5.49, 0 5.19 C0 4.89, 0.03 4.59, 0.08 4.29 C0.13 3.99, 0.21 3.7, 0.31 3.42 C0.42 3.13, 0.55 2.86, 0.7 2.6 C0.85 2.34, 1.02 2.08, 1.21 1.85 C1.41 1.62, 1.62 1.41, 1.85 1.21 C2.08 1.02, 2.34 0.85, 2.6 0.7 C2.86 0.55, 3.13 0.42, 3.42 0.31 C3.7 0.21, 3.99 0.13, 4.29 0.08 C4.59 0.03, 4.89 0, 5.19 0 C5.49 0, 5.8 0.03, 6.09 0.08 C6.39 0.13, 6.69 0.21, 6.97 0.31 C7.25 0.42, 7.53 0.55, 7.79 0.7 C8.05 0.85, 8.3 1.02, 8.53 1.21 C8.76 1.41, 8.98 1.62, 9.17 1.85 C9.36 2.08, 9.54 2.34, 9.69 2.6 C9.84 2.86, 9.97 3.13, 10.07 3.42 C10.17 3.7, 10.25 3.99, 10.3 4.29 C10.36 4.59, 10.37 5.04, 10.38 5.19 C10.4 5.34, 10.4 5.04, 10.38 5.19" stroke="#ffffff" stroke-width="2" fill="none"></path></g><g stroke-linecap="round"><g transform="translate(1333.5614150444267 85.11631207819482) rotate(180 1.93295161647643 3.313201549216842)"><path d="M0 0 C1.27 2.18, 2.55 4.37, 3.87 6.63 M0 0 C0.93 1.59, 1.85 3.17, 3.87 6.63" stroke="#ffffff" stroke-width="2" fill="none"></path></g></g><mask></mask><g stroke-linecap="round" transform="translate(1344.086857188509 43.71422406716397) rotate(0 5.191878198343147 5.191878198343147)"><path d="M10.38 5.19 C10.38 5.49, 10.36 5.8, 10.3 6.09 C10.25 6.39, 10.17 6.69, 10.07 6.97 C9.97 7.25, 9.84 7.53, 9.69 7.79 C9.54 8.05, 9.36 8.3, 9.17 8.53 C8.98 8.76, 8.76 8.98, 8.53 9.17 C8.3 9.36, 8.05 9.54, 7.79 9.69 C7.53 9.84, 7.25 9.97, 6.97 10.07 C6.69 10.17, 6.39 10.25, 6.09 10.3 C5.8 10.36, 5.49 10.38, 5.19 10.38 C4.89 10.38, 4.59 10.36, 4.29 10.3 C3.99 10.25, 3.7 10.17, 3.42 10.07 C3.13 9.97, 2.86 9.84, 2.6 9.69 C2.34 9.54, 2.08 9.36, 1.85 9.17 C1.62 8.98, 1.41 8.76, 1.21 8.53 C1.02 8.3, 0.85 8.05, 0.7 7.79 C0.55 7.53, 0.42 7.25, 0.31 6.97 C0.21 6.69, 0.13 6.39, 0.08 6.09 C0.03 5.8, 0 5.49, 0 5.19 C0 4.89, 0.03 4.59, 0.08 4.29 C0.13 3.99, 0.21 3.7, 0.31 3.42 C0.42 3.13, 0.55 2.86, 0.7 2.6 C0.85 2.34, 1.02 2.08, 1.21 1.85 C1.41 1.62, 1.62 1.41, 1.85 1.21 C2.08 1.02, 2.34 0.85, 2.6 0.7 C2.86 0.55, 3.13 0.42, 3.42 0.31 C3.7 0.21, 3.99 0.13, 4.29 0.08 C4.59 0.03, 4.89 0, 5.19 0 C5.49 0, 5.8 0.03, 6.09 0.08 C6.39 0.13, 6.69 0.21, 6.97 0.31 C7.25 0.42, 7.53 0.55, 7.79 0.7 C8.05 0.85, 8.3 1.02, 8.53 1.21 C8.76 1.41, 8.98 1.62, 9.17 1.85 C9.36 2.08, 9.54 2.34, 9.69 2.6 C9.84 2.86, 9.97 3.13, 10.07 3.42 C10.17 3.7, 10.25 3.99, 10.3 4.29 C10.36 4.59, 10.37 5.04, 10.38 5.19 C10.4 5.34, 10.4 5.04, 10.38 5.19" stroke="#ffffff" stroke-width="2" fill="none"></path></g><g stroke-linecap="round" transform="translate(1288.7630188964008 76.17285775483583) rotate(0 5.191878198343147 5.191878198343147)"><path d="M10.38 5.19 C10.38 5.49, 10.36 5.8, 10.3 6.09 C10.25 6.39, 10.17 6.69, 10.07 6.97 C9.97 7.25, 9.84 7.53, 9.69 7.79 C9.54 8.05, 9.36 8.3, 9.17 8.53 C8.98 8.76, 8.76 8.98, 8.53 9.17 C8.3 9.36, 8.05 9.54, 7.79 9.69 C7.53 9.84, 7.25 9.97, 6.97 10.07 C6.69 10.17, 6.39 10.25, 6.09 10.3 C5.8 10.36, 5.49 10.38, 5.19 10.38 C4.89 10.38, 4.59 10.36, 4.29 10.3 C3.99 10.25, 3.7 10.17, 3.42 10.07 C3.13 9.97, 2.86 9.84, 2.6 9.69 C2.34 9.54, 2.08 9.36, 1.85 9.17 C1.62 8.98, 1.41 8.76, 1.21 8.53 C1.02 8.3, 0.85 8.05, 0.7 7.79 C0.55 7.53, 0.42 7.25, 0.31 6.97 C0.21 6.69, 0.13 6.39, 0.08 6.09 C0.03 5.8, 0 5.49, 0 5.19 C0 4.89, 0.03 4.59, 0.08 4.29 C0.13 3.99, 0.21 3.7, 0.31 3.42 C0.42 3.13, 0.55 2.86, 0.7 2.6 C0.85 2.34, 1.02 2.08, 1.21 1.85 C1.41 1.62, 1.62 1.41, 1.85 1.21 C2.08 1.02, 2.34 0.85, 2.6 0.7 C2.86 0.55, 3.13 0.42, 3.42 0.31 C3.7 0.21, 3.99 0.13, 4.29 0.08 C4.59 0.03, 4.89 0, 5.19 0 C5.49 0, 5.8 0.03, 6.09 0.08 C6.39 0.13, 6.69 0.21, 6.97 0.31 C7.25 0.42, 7.53 0.55, 7.79 0.7 C8.05 0.85, 8.3 1.02, 8.53 1.21 C8.76 1.41, 8.98 1.62, 9.17 1.85 C9.36 2.08, 9.54 2.34, 9.69 2.6 C9.84 2.86, 9.97 3.13, 10.07 3.42 C10.17 3.7, 10.25 3.99, 10.3 4.29 C10.36 4.59, 10.37 5.04, 10.38 5.19 C10.4 5.34, 10.4 5.04, 10.38 5.19" stroke="#ffffff" stroke-width="2" fill="none"></path></g><g stroke-linecap="round"><g transform="translate(1322.103179535135 35.496584246251814) rotate(0 11.837000256070496 4.566987928833669)"><path d="M0 0 C4.83 -0.02, 9.66 -0.03, 17.45 -0.06 M0 0 C6.82 -0.02, 13.63 -0.05, 17.45 -0.06 M17.45 -0.06 C19.69 3.27, 21.93 6.6, 23.67 9.2 M17.45 -0.06 C19.53 3.02, 21.6 6.11, 23.67 9.2" stroke="#ffffff" stroke-width="2" fill="none"></path></g></g><mask></mask><g stroke-linecap="round"><g transform="translate(1348.8236218219295 80.98657625524197) rotate(0 4.263466221285626 -14.006989144422676)"><path d="M0 0 C3.32 -6.01, 6.64 -12.02, 8.53 -15.43 M0 0 C1.84 -3.32, 3.67 -6.64, 8.53 -15.43 M8.53 -15.43 C7.27 -18.02, 6 -20.62, 2.41 -28.01 M8.53 -15.43 C6.23 -20.14, 3.94 -24.86, 2.41 -28.01" stroke="#ffffff" stroke-width="2" fill="none"></path></g></g><mask></mask><g stroke-linecap="round"><g transform="translate(1297.0920377769348 85.58364137056401) rotate(180 11.837000256070496 4.566987928833669)"><path d="M0 0 C3.57 -0.01, 7.13 -0.03, 17.45 -0.06 M0 0 C4.67 -0.02, 9.35 -0.03, 17.45 -0.06 M17.45 -0.06 C19.86 3.52, 22.26 7.1, 23.67 9.2 M17.45 -0.06 C19.8 3.43, 22.14 6.92, 23.67 9.2" stroke="#ffffff" stroke-width="2" fill="none"></path></g></g><mask></mask><g stroke-linecap="round"><g transform="translate(1285.5186635597088 77.2416035080862) rotate(180 4.263466221285626 -14.006989144422676)"><path d="M0 0 C1.76 -3.18, 3.51 -6.36, 8.53 -15.43 M0 0 C3.22 -5.82, 6.43 -11.64, 8.53 -15.43 M8.53 -15.43 C6.26 -20.08, 4 -24.74, 2.41 -28.01 M8.53 -15.43 C6.23 -20.16, 3.93 -24.88, 2.41 -28.01" stroke="#ffffff" stroke-width="2" fill="none"></path></g></g><mask></mask><g transform="translate(1248.871475339352 128.3011447012709) rotate(0 73.4104995727539 31.817617244687085)"><text x="73.4104995727539" y="22.297786165076687" font-family="Virgil, Segoe UI Emoji" font-size="25.454093795749646px" fill="#000000" text-anchor="middle" style="white-space: pre;" direction="ltr" dominant-baseline="alphabetic">Amazon</text><text x="73.4104995727539" y="54.11540340976374" font-family="Virgil, Segoe UI Emoji" font-size="25.454093795749646px" fill="#000000" text-anchor="middle" style="white-space: pre;" direction="ltr" dominant-baseline="alphabetic">EventBridge</text></g><g mask="url(#mask-K20auRQKw5RlLsBDbK3c7)" stroke-linecap="round"><g transform="translate(1325.9609554589638 198.16555817344874) rotate(0 1.8675478727925565 168.00479292547607)"><path d="M0.39 0.84 C0.96 56.98, 3.25 279.95, 3.68 335.65 M-0.86 0.24 C-0.48 56.65, 1.64 281.06, 2.7 337" stroke="#1e1e1e" stroke-width="2" fill="none"></path></g><g transform="translate(1325.9609554589638 198.16555817344874) rotate(0 1.8675478727925565 168.00479292547607)"><path d="M-6.16 313.63 C-2.13 321.05, -1.26 327.43, 2.7 337 M-6.16 313.63 C-4.52 318.88, -2.54 323.61, 2.7 337" stroke="#1e1e1e" stroke-width="2" fill="none"></path></g><g transform="translate(1325.9609554589638 198.16555817344874) rotate(0 1.8675478727925565 168.00479292547607)"><path d="M10.94 313.4 C9.45 320.95, 4.79 327.4, 2.7 337 M10.94 313.4 C8.8 318.54, 6.99 323.32, 2.7 337" stroke="#1e1e1e" stroke-width="2" fill="none"></path></g></g><mask id="mask-K20auRQKw5RlLsBDbK3c7"><rect x="0" y="0" fill="#fff" width="1429.696051204549" height="634.1751440244009"></rect><rect x="1235.8285796257019" y="341.1703510989248" fill="#000" width="183.99984741210938" height="50" opacity="1"></rect></mask><g transform="translate(1235.8285796257014 341.1703510989248) rotate(0 91.54154787157677 25.614885148983433)"><text x="91.99992370605469" y="17.52" font-family="Virgil, Segoe UI Emoji" font-size="20px" fill="#1e1e1e" text-anchor="middle" style="white-space: pre;" direction="ltr" dominant-baseline="alphabetic">1. triggers daily at</text><text x="91.99992370605469" y="42.519999999999996" font-family="Virgil, Segoe UI Emoji" font-size="20px" fill="#1e1e1e" text-anchor="middle" style="white-space: pre;" direction="ltr" dominant-baseline="alphabetic">9AM AEST</text></g><g stroke-linecap="round" transform="translate(1824.1392287925091 554.075224910182) rotate(0 117.75488558459938 82.38900589402351)"><path d="M32 0 C84.19 -3.33, 138.13 -2.79, 203.51 0 M32 0 C92.82 1.11, 154.7 0.36, 203.51 0 M203.51 0 C224.45 0.24, 235.95 12.61, 235.51 32 M203.51 0 C222.64 1.35, 233.97 11.5, 235.51 32 M235.51 32 C236.81 68.44, 236.49 104.42, 235.51 132.78 M235.51 32 C237.01 70.25, 236.77 108.74, 235.51 132.78 M235.51 132.78 C234.98 153.29, 226.6 164.87, 203.51 164.78 M235.51 132.78 C235.67 156.24, 223.11 165.24, 203.51 164.78 M203.51 164.78 C165.79 162.4, 129.26 164.68, 32 164.78 M203.51 164.78 C146.78 163.62, 88.96 164.12, 32 164.78 M32 164.78 C11.2 165.37, 1.01 153.51, 0 132.78 M32 164.78 C10.33 165.33, -0.26 154.6, 0 132.78 M0 132.78 C-0.96 97.92, -0.27 66.52, 0 32 M0 132.78 C0.2 102.76, 0.24 72.15, 0 32 M0 32 C0.16 9.57, 9.25 0.89, 32 0 M0 32 C-0.73 11.31, 11.25 0.63, 32 0" stroke="#1e1e1e" stroke-width="2" fill="none"></path></g><g transform="translate(1871.80417144498 623.9642308042055) rotate(0 70.0899429321289 12.5)"><text x="70.0899429321289" y="17.52" font-family="Virgil, Segoe UI Emoji" font-size="20px" fill="#1e1e1e" text-anchor="middle" style="white-space: pre;" direction="ltr" dominant-baseline="alphabetic">Forward Proxy</text></g><g stroke-linecap="round" transform="translate(1824.1392293696163 990.1196677742334) rotate(0 117.75488558459938 82.38900589402351)"><path d="M32 0 C86.66 -1.36, 142.71 0.49, 203.51 0 M32 0 C97.44 -0.17, 161.76 -1.1, 203.51 0 M203.51 0 C225.53 -1.48, 237.15 10.05, 235.51 32 M203.51 0 C225.91 0.86, 234.46 9.17, 235.51 32 M235.51 32 C233.61 67.15, 236.03 104.51, 235.51 132.78 M235.51 32 C234.68 68.11, 234.65 103.53, 235.51 132.78 M235.51 132.78 C236.15 155.92, 226.25 166.71, 203.51 164.78 M235.51 132.78 C237.16 152.74, 223.53 164.55, 203.51 164.78 M203.51 164.78 C141.94 167.3, 82.44 165.5, 32 164.78 M203.51 164.78 C163.31 162.86, 122.32 163.93, 32 164.78 M32 164.78 C11.43 162.94, 1.12 153.49, 0 132.78 M32 164.78 C9.65 163.73, 0.06 153.45, 0 132.78 M0 132.78 C1.63 95.57, 1.05 58.81, 0 32 M0 132.78 C-0.75 101.46, -0.64 69.17, 0 32 M0 32 C0.25 8.88, 10.55 -1.91, 32 0 M0 32 C0.19 10.15, 11.96 1.02, 32 0" stroke="#1e1e1e" stroke-width="2" fill="none"></path></g><g transform="translate(1871.2541689703294 1060.008673668257) rotate(0 70.63994598388672 12.5)"><text x="70.63994598388672" y="17.52" font-family="Virgil, Segoe UI Emoji" font-size="20px" fill="#1e1e1e" text-anchor="middle" style="white-space: pre;" direction="ltr" dominant-baseline="alphabetic">Geocoding API</text></g><g mask="url(#mask-VQ3R-FggNwkeVBcoZCfNY)" stroke-linecap="round"><g transform="translate(1401.667767490058 617.7502073766689) rotate(0 198.5597101543883 0.6233435418577074)"><path d="M0.95 0.22 C67.33 0.61, 332.11 1.74, 398.19 2.02 M-0.01 -0.71 C66.32 -0.64, 331.67 0.2, 397.8 0.3" stroke="#1e1e1e" stroke-width="2" fill="none"></path></g><g transform="translate(1401.667767490058 617.7502073766689) rotate(0 198.5597101543883 0.6233435418577074)"><path d="M374.29 8.8 C381.5 7.93, 389.24 4.16, 397.8 0.3 M374.29 8.8 C383.49 6.25, 391.61 3.86, 397.8 0.3" stroke="#1e1e1e" stroke-width="2" fill="none"></path></g><g transform="translate(1401.667767490058 617.7502073766689) rotate(0 198.5597101543883 0.6233435418577074)"><path d="M374.33 -8.3 C381.49 -4.21, 389.22 -3.02, 397.8 0.3 M374.33 -8.3 C383.52 -4.78, 391.62 -1.1, 397.8 0.3" stroke="#1e1e1e" stroke-width="2" fill="none"></path></g></g><mask id="mask-VQ3R-FggNwkeVBcoZCfNY"><rect x="0" y="0" fill="#fff" width="1898.7871877988346" height="718.9968944603843"></rect><rect x="1499.9075618729617" y="593.3735509185265" fill="#000" width="200.63983154296875" height="50" opacity="1"></rect></mask><g transform="translate(1499.907561872962 593.3735509185265) rotate(0 100.84715725298929 25.033553743995867)"><text x="100.31991577148438" y="17.52" font-family="Virgil, Segoe UI Emoji" font-size="20px" fill="#1e1e1e" text-anchor="middle" style="white-space: pre;" direction="ltr" dominant-baseline="alphabetic">2. fetch nearby fuel</text><text x="100.31991577148438" y="42.519999999999996" font-family="Virgil, Segoe UI Emoji" font-size="20px" fill="#1e1e1e" text-anchor="middle" style="white-space: pre;" direction="ltr" dominant-baseline="alphabetic">stations</text></g><g stroke-linecap="round" transform="translate(2291.9859256773643 554.0752255273608) rotate(0 117.75488558459938 82.38900589402351)"><path d="M32 0 C74.17 -2.88, 119.52 -3.2, 203.51 0 M32 0 C77.83 -0.66, 122.99 0.01, 203.51 0 M203.51 0 C223.52 -0.96, 236.4 8.96, 235.51 32 M203.51 0 C227.06 1.51, 233.29 10.63, 235.51 32 M235.51 32 C235.51 68.14, 237.08 104.78, 235.51 132.78 M235.51 32 C234.77 68.6, 234.92 105.99, 235.51 132.78 M235.51 132.78 C236.68 153.11, 225.87 165.09, 203.51 164.78 M235.51 132.78 C233.33 155.75, 223.86 165.13, 203.51 164.78 M203.51 164.78 C161.81 166.2, 116.82 163.58, 32 164.78 M203.51 164.78 C150.53 165.22, 100.04 165.58, 32 164.78 M32 164.78 C9.72 166.13, -0.65 152.32, 0 132.78 M32 164.78 C12.75 166.91, 1.32 156.31, 0 132.78 M0 132.78 C-1.74 108.76, -0.04 89.33, 0 32 M0 132.78 C1.1 110.56, 1.15 89.49, 0 32 M0 32 C-1.95 9.2, 9.66 0.82, 32 0 M0 32 C-0.61 9.53, 12.44 2.26, 32 0" stroke="#1e1e1e" stroke-width="2" fill="none"></path></g><g transform="translate(2319.7208832834485 623.9642314213843) rotate(0 90.01992797851562 12.5)"><text x="90.01992797851562" y="17.52" font-family="Virgil, Segoe UI Emoji" font-size="20px" fill="#1e1e1e" text-anchor="middle" style="white-space: pre;" direction="ltr" dominant-baseline="alphabetic">Fuel Stations API</text></g><g stroke-linecap="round"><g transform="translate(2083.5772684851054 626.1182102933158) rotate(0 95.07711568453624 -1.6830467227289319)"><path d="M-0.45 -0.22 C31.49 -0.8, 159.17 -3.2, 190.96 -3.57 M1.52 -1.38 C33.42 -1.77, 159.09 -1.66, 190.43 -2.14" stroke="#1e1e1e" stroke-width="2" fill="none"></path></g><g transform="translate(2083.5772684851054 626.1182102933158) rotate(0 95.07711568453624 -1.6830467227289319)"><path d="M166.99 6.56 C172.36 5.86, 178.12 2.59, 190.43 -2.14 M166.99 6.56 C175.55 4.1, 184.32 0.75, 190.43 -2.14" stroke="#1e1e1e" stroke-width="2" fill="none"></path></g><g transform="translate(2083.5772684851054 626.1182102933158) rotate(0 95.07711568453624 -1.6830467227289319)"><path d="M166.89 -10.54 C172.27 -7.06, 178.05 -6.15, 190.43 -2.14 M166.89 -10.54 C175.32 -6.5, 184.13 -3.35, 190.43 -2.14" stroke="#1e1e1e" stroke-width="2" fill="none"></path></g></g><mask></mask><g mask="url(#mask-WtLMe7-9WlIZ332w4d4Ph)" stroke-linecap="round"><g transform="translate(1325.291099284968 721.5728845610863) rotate(0 0.4314484937360703 130.43787218570128)"><path d="M-0.58 0.9 C-0.4 44.47, -0.42 218.88, -0.01 262.03 M1.31 0.33 C1.97 43.54, 2.19 217.14, 2.24 260.51" stroke="#1e1e1e" stroke-width="2" fill="none"></path></g><g transform="translate(1325.291099284968 721.5728845610863) rotate(0 0.4314484937360703 130.43787218570128)"><path d="M-6.34 237.03 C-2.94 240.49, -0.74 248.49, 2.24 260.51 M-6.34 237.03 C-5.35 242.82, -3.3 247.41, 2.24 260.51" stroke="#1e1e1e" stroke-width="2" fill="none"></path></g><g transform="translate(1325.291099284968 721.5728845610863) rotate(0 0.4314484937360703 130.43787218570128)"><path d="M10.76 237 C10.61 240.39, 9.25 248.39, 2.24 260.51 M10.76 237 C8.17 242.95, 6.64 247.55, 2.24 260.51" stroke="#1e1e1e" stroke-width="2" fill="none"></path></g></g><mask id="mask-WtLMe7-9WlIZ332w4d4Ph"><rect x="0" y="0" fill="#fff" width="1426.15399627244" height="1082.4486289324889"></rect><rect x="1217.0926344486265" y="814.5107567467876" fill="#000" width="217.25982666015625" height="75" opacity="1"></rect></mask><g transform="translate(1217.092634448626 814.5107567467878) rotate(0 109.02840716596666 38.239249172843984)"><text x="108.62991333007812" y="17.52" font-family="Virgil, Segoe UI Emoji" font-size="20px" fill="#1e1e1e" text-anchor="middle" style="white-space: pre;" direction="ltr" dominant-baseline="alphabetic">4. enrich each station</text><text x="108.62991333007812" y="42.519999999999996" font-family="Virgil, Segoe UI Emoji" font-size="20px" fill="#1e1e1e" text-anchor="middle" style="white-space: pre;" direction="ltr" dominant-baseline="alphabetic">with travel details</text><text x="108.62991333007812" y="67.52" font-family="Virgil, Segoe UI Emoji" font-size="20px" fill="#1e1e1e" text-anchor="middle" style="white-space: pre;" direction="ltr" dominant-baseline="alphabetic">from origin</text></g><g mask="url(#mask-GkfLtPNgWpdAcZJeeUsEz)" stroke-linecap="round"><g transform="translate(1251.7466174622127 607.2108647537709) rotate(0 -189.29881548420212 -0.014285355380366127)"><path d="M-0.49 0.49 C-63.5 0.26, -315.55 -0.46, -378.63 -0.55 M1.46 -0.3 C-61.67 -0.44, -316.03 0.45, -379.59 0.72" stroke="#1e1e1e" stroke-width="2" fill="none"></path></g><g transform="translate(1251.7466174622127 607.2108647537709) rotate(0 -189.29881548420212 -0.014285355380366127)"><path d="M-356.13 -7.92 C-361.26 -5.86, -368.94 -4.2, -379.59 0.72 M-356.13 -7.92 C-364.04 -6.18, -370.38 -1.87, -379.59 0.72" stroke="#1e1e1e" stroke-width="2" fill="none"></path></g><g transform="translate(1251.7466174622127 607.2108647537709) rotate(0 -189.29881548420212 -0.014285355380366127)"><path d="M-356.07 9.18 C-361.33 6.87, -369.02 4.16, -379.59 0.72 M-356.07 9.18 C-364.03 5.77, -370.38 4.93, -379.59 0.72" stroke="#1e1e1e" stroke-width="2" fill="none"></path></g></g><mask id="mask-GkfLtPNgWpdAcZJeeUsEz"><rect x="0" y="0" fill="#fff" width="1730.344248430617" height="707.2394354645317"></rect><rect x="947.5578788823073" y="582.1965793983907" fill="#000" width="229.77984619140625" height="50" opacity="1"></rect></mask><g transform="translate(947.5578788823077 582.1965793983907) rotate(0 115.122814699728 25.09915551774884)"><text x="114.88992309570312" y="17.52" font-family="Virgil, Segoe UI Emoji" font-size="20px" fill="#1e1e1e" text-anchor="middle" style="white-space: pre;" direction="ltr" dominant-baseline="alphabetic">5. aggregate data and</text><text x="114.88992309570312" y="42.519999999999996" font-family="Virgil, Segoe UI Emoji" font-size="20px" fill="#1e1e1e" text-anchor="middle" style="white-space: pre;" direction="ltr" dominant-baseline="alphabetic">create message</text></g><g stroke-linecap="round" transform="translate(1196.2916549112892 997.8142494452832) rotate(0 117.7548855845996 82.38900589402351)"><path d="M32 0 C97.24 -2.81, 164.09 -0.4, 203.51 0 M32 0 C91.74 -0.59, 153.6 -0.24, 203.51 0 M203.51 0 C224.87 -1.63, 236.65 9.56, 235.51 32 M203.51 0 C226.39 -0.45, 236.8 10.95, 235.51 32 M235.51 32 C235.7 54.15, 234.33 74.05, 235.51 132.78 M235.51 32 C234.63 68.77, 234.33 105.31, 235.51 132.78 M235.51 132.78 C236.36 155.08, 223.48 162.98, 203.51 164.78 M235.51 132.78 C233.66 153.2, 224.3 165.21, 203.51 164.78 M203.51 164.78 C146.17 165.07, 88.52 166.87, 32 164.78 M203.51 164.78 C156.51 165.7, 111.15 164.76, 32 164.78 M32 164.78 C12.06 165.69, -1.95 152.39, 0 132.78 M32 164.78 C11.76 164.92, -0.16 153.05, 0 132.78 M0 132.78 C0.08 102.38, -0.29 69, 0 32 M0 132.78 C-0.58 96.49, -1.45 59.05, 0 32 M0 32 C1.58 8.85, 12.36 1.55, 32 0 M0 32 C1.74 11.17, 9.08 1.47, 32 0" stroke="#1e1e1e" stroke-width="2" fill="none"></path></g><g transform="translate(1210.4366161794828 1067.7032553393067) rotate(0 103.60992431640625 12.5)"><text x="103.60992431640625" y="17.52" font-family="Virgil, Segoe UI Emoji" font-size="20px" fill="#1e1e1e" text-anchor="middle" style="white-space: pre;" direction="ltr" dominant-baseline="alphabetic">Distance Matrix API</text></g><g mask="url(#mask-CTtm-hmbCL03X_kFXPjes)" stroke-linecap="round"><g transform="translate(81.20523497275599 535.6255346064647) rotate(0 587.6737357275786 -127.97822014328256)"><path d="M1.16 -0.09 C112.16 -44.04, 469.7 -264.75, 665.49 -263.33 C861.29 -261.91, 1091.1 -36.95, 1175.93 8.41 M0.32 -1.18 C111.26 -45.51, 469.09 -266.87, 664.95 -265.03 C860.81 -263.19, 1090.58 -35.43, 1175.47 9.84" stroke="#1e1e1e" stroke-width="2" fill="none"></path></g><g transform="translate(81.20523497275599 535.6255346064647) rotate(0 587.6737357275786 -127.97822014328256)"><path d="M1151.38 3.16 C1157.51 5.95, 1165.28 7.37, 1175.47 9.84 M1151.38 3.16 C1158.72 4.91, 1167.17 7.47, 1175.47 9.84" stroke="#1e1e1e" stroke-width="2" fill="none"></path></g><g transform="translate(81.20523497275599 535.6255346064647) rotate(0 587.6737357275786 -127.97822014328256)"><path d="M1161.31 -10.76 C1164.91 -4.26, 1170.09 0.79, 1175.47 9.84 M1161.31 -10.76 C1165.38 -4.52, 1170.67 2.48, 1175.47 9.84" stroke="#1e1e1e" stroke-width="2" fill="none"></path></g></g><mask id="mask-CTtm-hmbCL03X_kFXPjes"><rect x="0" y="0" fill="#fff" width="1356.552706427913" height="907.94374217944"></rect><rect x="619.9486580433631" y="258.9882106766945" fill="#000" width="251.9597625732422" height="25" opacity="1"></rect></mask><g transform="translate(619.9486580433631 258.9882106766945) rotate(0 49.37870612483175 149.03823866863115)"><text x="125.9798812866211" y="17.52" font-family="Virgil, Segoe UI Emoji" font-size="20px" fill="#1e1e1e" text-anchor="middle" style="white-space: pre;" direction="ltr" dominant-baseline="alphabetic">0. provides origin address</text></g><g mask="url(#mask-hn2yAYbxUzvxizK687Nwh)" stroke-linecap="round"><g transform="translate(1409.8688279048138 705.2177668007009) rotate(0 196.75663664961485 138.57280475728487)"><path d="M-0.16 -0.93 C65.24 45.07, 327.23 230.75, 392.68 277.1 M-1.7 1.2 C64.05 47.9, 328.84 232.39, 394.95 278.62" stroke="#1e1e1e" stroke-width="2" fill="none"></path></g><g transform="translate(1409.8688279048138 705.2177668007009) rotate(0 196.75663664961485 138.57280475728487)"><path d="M370.79 272.18 C377.16 272.91, 386.49 274.77, 394.95 278.62 M370.79 272.18 C377.5 274.84, 386.26 275.33, 394.95 278.62" stroke="#1e1e1e" stroke-width="2" fill="none"></path></g><g transform="translate(1409.8688279048138 705.2177668007009) rotate(0 196.75663664961485 138.57280475728487)"><path d="M380.58 258.16 C383.9 263.44, 390.05 269.86, 394.95 278.62 M380.58 258.16 C384.34 265.16, 390.12 269.93, 394.95 278.62" stroke="#1e1e1e" stroke-width="2" fill="none"></path></g></g><mask id="mask-hn2yAYbxUzvxizK687Nwh"><rect x="0" y="0" fill="#fff" width="1903.3821012040435" height="1082.3633763152707"></rect><rect x="1472.3555670934911" y="818.7905715579855" fill="#000" width="268.539794921875" height="50" opacity="1"></rect></mask><g transform="translate(1472.3555670934911 818.7905715579857) rotate(0 134.1359857144953 25.272418486960305)"><text x="134.2698974609375" y="17.52" font-family="Virgil, Segoe UI Emoji" font-size="20px" fill="#1e1e1e" text-anchor="middle" style="white-space: pre;" direction="ltr" dominant-baseline="alphabetic">3. translate origin address</text><text x="134.2698974609375" y="42.519999999999996" font-family="Virgil, Segoe UI Emoji" font-size="20px" fill="#1e1e1e" text-anchor="middle" style="white-space: pre;" direction="ltr" dominant-baseline="alphabetic">to coordinates</text></g></svg>
